<?xml version="1.0" encoding="UTF-8"?>
<svg xmlns="http://www.w3.org/2000/svg" xmlns:xlink="http://www.w3.org/1999/xlink" width="5000" height="5000" viewBox="0 0 5000 5000">
<path fill-rule="nonzero" fill="rgb(0%, 0%, 0%)" fill-opacity="1" d="M 2519.128906 1395.441406 C 2517.359375 1396.628906 2536 1342.910156 2575.050781 1234.28125 C 2665.800781 1020.449219 2713.800781 900.53125 2719.050781 874.511719 C 2743.449219 800.359375 2756.121094 726.660156 2757.070312 653.398438 C 2756.5 550.339844 2739.121094 464.78125 2704.929688 396.710938 C 2688.019531 361.820312 2668.429688 330.660156 2646.160156 303.238281 C 2619.53125 271.160156 2580.921875 236.421875 2530.320312 199.019531 C 2526.449219 195.109375 2527.628906 191.761719 2533.839844 188.960938 C 2628.960938 201.828125 2708.160156 292.390625 2771.429688 460.660156 C 2788.171875 513.089844 2801.539062 590.519531 2811.539062 692.96875 C 2816.511719 712.019531 2819.671875 809.089844 2821.03125 984.191406 C 2827.238281 1070.871094 2833.300781 1125.238281 2839.21875 1147.289062 C 2841.519531 1153.171875 2848.628906 1157.601562 2860.550781 1160.570312 C 2942.910156 1164.769531 2985.300781 1169.441406 2987.71875 1174.578125 L 2786.660156 1225.96875 C 2715.839844 1256.441406 2662.96875 1286.738281 2628.050781 1316.851562 C 2558.25 1378.691406 2508.738281 1479.769531 2479.511719 1620.101562 L 2519.128906 1395.441406 "/>
<path fill-rule="nonzero" fill="rgb(0%, 0%, 0%)" fill-opacity="1" d="M 2743.628906 245.96875 C 2747.570312 226.371094 2769.621094 195.019531 2809.789062 151.929688 C 2842.148438 112.679688 2863.671875 97.699219 2874.351562 106.988281 C 2894.601562 108.160156 2926.949219 146.289062 2971.390625 221.359375 C 2996.988281 260.699219 3012.699219 295.339844 3018.519531 325.269531 C 3037.921875 378.800781 3047.199219 450.628906 3046.371094 540.78125 C 3045.988281 591.230469 3043.089844 649.289062 3037.679688 714.949219 C 3036.039062 740 3026.179688 818.488281 3008.078125 950.429688 C 3005.898438 979.160156 3005.859375 1004.871094 3007.980469 1027.558594 C 3010.019531 1057.851562 3018.21875 1085.371094 3032.589844 1110.121094 C 3033.261719 1116.960938 3053.378906 1137.988281 3092.941406 1173.210938 C 3091.910156 1177.238281 3087.519531 1179.238281 3079.78125 1179.210938 L 2996.589844 1164.828125 C 2995.78125 1163.328125 2995.960938 1161.679688 2997.121094 1159.859375 C 3009.179688 1149.238281 3013.929688 1143.121094 3011.371094 1141.519531 C 2982.808594 1109.199219 2970.46875 1044.621094 2974.359375 947.769531 C 2975.890625 912.28125 2979.308594 877.210938 2984.640625 842.558594 C 3006.71875 738.140625 3017.058594 684.070312 3015.660156 680.351562 C 3020.578125 642.679688 3023.210938 605.308594 3023.53125 568.238281 C 3021.859375 477.148438 3012.019531 403.988281 2994.019531 348.78125 C 2963.210938 246.558594 2926.578125 187.738281 2884.128906 172.289062 C 2863.660156 157.898438 2818.75 185.53125 2749.390625 255.171875 L 2743.628906 245.96875 "/>
<path fill-rule="nonzero" fill="rgb(0%, 0%, 0%)" fill-opacity="1" d="M 3134.230469 1196.179688 L 3365.929688 1307.789062 C 3389.421875 1319.660156 3408.441406 1330.941406 3422.988281 1341.621094 C 3464.519531 1370.550781 3503.941406 1419.671875 3541.269531 1488.96875 C 3575.121094 1548.539062 3605.039062 1615.269531 3631 1689.148438 C 3653.371094 1744.171875 3685.558594 1845.078125 3727.578125 1991.871094 L 3766.121094 2097.160156 C 3763.730469 2141.929688 3734.230469 2177.101562 3677.589844 2202.671875 C 3636.25 2168.320312 3583.191406 2137.199219 3518.410156 2109.308594 L 3678.691406 2161.480469 C 3699.558594 2156.710938 3716.890625 2137.808594 3730.679688 2104.789062 L 3621.449219 1752.480469 C 3567.320312 1616.140625 3531.960938 1534.679688 3515.390625 1508.089844 C 3498.070312 1471.050781 3468.878906 1434.929688 3427.820312 1399.75 C 3407.511719 1376.78125 3329.808594 1324.289062 3194.710938 1242.269531 C 3178.558594 1231.539062 3161.550781 1216.570312 3143.679688 1197.351562 L 3134.230469 1196.179688 "/>
<path fill-rule="nonzero" fill="rgb(0%, 0%, 0%)" fill-opacity="1" d="M 3548.789062 2133.21875 L 3584.460938 2162.160156 C 3585.789062 2163.269531 3586.949219 2164.488281 3587.929688 2165.820312 C 3588.839844 2167.03125 3589.351562 2168.890625 3589.46875 2171.410156 C 3589.761719 2173.421875 3589.589844 2179.308594 3588.941406 2189.070312 C 3589.058594 2190.859375 3589.429688 2192.011719 3590.03125 2192.511719 C 3591.070312 2193.480469 3592.101562 2193.941406 3593.140625 2193.921875 C 3597.429688 2193.410156 3600.839844 2193.449219 3603.371094 2194.050781 C 3605.191406 2194.359375 3607.25 2195.078125 3609.53125 2196.210938 C 3615.019531 2199.261719 3619.640625 2203.789062 3623.398438 2209.789062 C 3626.609375 2214.988281 3628.871094 2221.199219 3630.179688 2228.441406 C 3632.191406 2238.328125 3632.371094 2251.261719 3630.71875 2267.230469 C 3630.828125 2269.929688 3632.160156 2271.5 3634.710938 2271.921875 C 3636.46875 2271.46875 3638.179688 2269.070312 3639.851562 2264.710938 C 3647.140625 2241.179688 3651.699219 2227.898438 3653.539062 2224.871094 C 3656.570312 2218.089844 3660.191406 2211.910156 3664.410156 2206.328125 C 3665.179688 2204.519531 3664.789062 2202.261719 3663.230469 2199.558594 C 3657.921875 2191.128906 3649.570312 2183.261719 3638.160156 2175.941406 C 3618.378906 2166.578125 3597.839844 2155.511719 3576.53125 2142.710938 C 3568.859375 2138.761719 3561.089844 2135.558594 3553.238281 2133.121094 L 3548.789062 2133.21875 "/>
<path fill-rule="nonzero" fill="rgb(0%, 0%, 0%)" fill-opacity="1" d="M 3745.78125 2163.988281 C 3745.21875 2166.660156 3736.730469 2174.78125 3720.300781 2188.359375 C 3717 2191.429688 3706.738281 2197.101562 3689.539062 2205.359375 C 3687.800781 2206.359375 3686.261719 2207.679688 3684.921875 2209.289062 C 3684.128906 2210.171875 3682.960938 2212.320312 3681.421875 2215.730469 C 3675.910156 2229.800781 3671.800781 2239.621094 3669.070312 2245.199219 L 3656.109375 2270.429688 C 3654.96875 2274.160156 3657.058594 2274.351562 3662.359375 2271.019531 C 3664.488281 2269.199219 3666.828125 2266.761719 3669.390625 2263.71875 C 3687.75 2239.46875 3699.019531 2225.308594 3703.191406 2221.238281 C 3706.148438 2217.988281 3709 2215.101562 3711.75 2212.578125 C 3725.578125 2201.511719 3732.589844 2195.339844 3732.78125 2194.089844 C 3733.628906 2194.289062 3741.601562 2181.089844 3756.691406 2154.511719 L 3745.78125 2163.988281 "/>
<path fill-rule="nonzero" fill="rgb(0%, 0%, 0%)" fill-opacity="1" d="M 3625.890625 2284.371094 C 3607.628906 2324.890625 3583.128906 2346.800781 3552.410156 2350.101562 C 3536.980469 2352.558594 3513.921875 2353.121094 3483.238281 2351.761719 C 3474.078125 2351.339844 3461.78125 2350.511719 3446.328125 2349.238281 C 3364.238281 2341.820312 3323.390625 2338.300781 3323.789062 2338.679688 C 3293.269531 2336.671875 3269.609375 2335.921875 3252.800781 2336.421875 C 3211.210938 2337.921875 3170.78125 2346.511719 3131.488281 2362.179688 C 3153.828125 2360.089844 3167.371094 2359.03125 3172.128906 2359.011719 C 3217.230469 2357 3244.761719 2356.25 3254.730469 2356.761719 C 3270.808594 2357.21875 3287.230469 2358.210938 3303.980469 2359.71875 C 3346.511719 2365.148438 3373.171875 2368.199219 3383.960938 2368.878906 L 3459.589844 2373.160156 C 3495.859375 2375.011719 3522.160156 2374.640625 3538.511719 2372.039062 C 3597.359375 2361.058594 3628.550781 2332.53125 3632.078125 2286.449219 L 3625.890625 2284.371094 "/>
<path fill-rule="nonzero" fill="rgb(0%, 0%, 0%)" fill-opacity="1" d="M 3645.800781 2294.578125 C 3641.539062 2302.421875 3639.878906 2312.371094 3640.828125 2324.421875 C 3641.890625 2332.359375 3645.421875 2337.769531 3651.421875 2340.640625 C 3656.429688 2342.941406 3664.839844 2342.558594 3676.628906 2339.488281 C 3682.191406 2338.03125 3687.75 2336.089844 3693.300781 2333.648438 C 3695.960938 2332.648438 3701.011719 2329.570312 3708.460938 2324.410156 C 3709.421875 2323.820312 3710.058594 2323.820312 3710.378906 2324.429688 C 3706.308594 2330.488281 3698.328125 2337.171875 3686.441406 2344.460938 C 3673.128906 2351.710938 3661.941406 2355.941406 3652.878906 2357.128906 C 3641.679688 2358.539062 3634.101562 2353.039062 3630.148438 2340.640625 C 3626.429688 2329.070312 3628.910156 2314.019531 3637.609375 2295.480469 L 3645.800781 2294.578125 "/>
<path fill-rule="nonzero" fill="rgb(0%, 0%, 0%)" fill-opacity="1" d="M 3540.039062 2019.890625 L 3429.820312 1980.519531 C 3407.730469 1974.199219 3386.578125 1970.601562 3366.359375 1969.71875 C 3318.828125 1967.609375 3273.78125 1979.75 3231.191406 2006.109375 C 3187.011719 2033.050781 3154.011719 2071.109375 3132.210938 2120.28125 C 3116.019531 2158.71875 3109.46875 2213.820312 3112.570312 2285.578125 C 3093.71875 2239.039062 3096.511719 2178.320312 3120.910156 2103.421875 C 3150.191406 2039.710938 3190.050781 1993.5 3240.480469 1964.808594 C 3282.21875 1940.621094 3327.320312 1933.941406 3375.789062 1944.761719 C 3420.710938 1953.570312 3451.078125 1961.890625 3466.890625 1969.691406 C 3487.398438 1977.179688 3521.351562 1996.269531 3568.738281 2026.960938 L 3540.039062 2019.890625 "/>
<path fill-rule="nonzero" fill="rgb(0%, 0%, 0%)" fill-opacity="1" d="M 3053.75 2348.648438 C 3058.550781 2343.769531 3045 2341.570312 3013.121094 2342.019531 C 3007.019531 2340.96875 2955.398438 2344.96875 2858.28125 2354.03125 C 2839.269531 2355.28125 2821.339844 2355.46875 2804.480469 2354.601562 C 2766.570312 2352.871094 2727.140625 2345.390625 2686.21875 2332.148438 C 2579.480469 2296.371094 2439.140625 2218.210938 2265.21875 2097.671875 L 2423.480469 2159.050781 C 2537.550781 2210.308594 2596.601562 2236.210938 2600.628906 2236.761719 C 2630.589844 2248.679688 2666.648438 2261.078125 2708.808594 2273.96875 C 2740.160156 2283.789062 2771.660156 2289.949219 2803.289062 2292.429688 C 2815.359375 2294.578125 2860.539062 2294.96875 2938.820312 2293.578125 C 2955.011719 2294.011719 2969.488281 2295.339844 2982.269531 2297.570312 C 3013.609375 2302.429688 3046.789062 2316.03125 3081.808594 2338.359375 L 3053.75 2348.648438 "/>
<path fill-rule="nonzero" fill="rgb(0%, 0%, 0%)" fill-opacity="1" d="M 3133.28125 1686.519531 C 3123.289062 1677.179688 3116.148438 1666.238281 3111.871094 1653.691406 C 3110.761719 1650.679688 3109.699219 1645.878906 3108.691406 1639.289062 C 3105.109375 1600.269531 3102.179688 1577.769531 3099.878906 1571.800781 C 3095.871094 1556.058594 3090.371094 1544.550781 3083.378906 1537.269531 C 3056.398438 1512.351562 3021.640625 1503.351562 2979.109375 1510.289062 C 2948.761719 1517.050781 2925.328125 1534.75 2908.800781 1563.390625 C 2889.800781 1599.160156 2887.988281 1626.058594 2903.371094 1644.078125 C 2911.921875 1656.390625 2929.519531 1665.28125 2956.179688 1670.738281 C 2968.019531 1673.160156 2978.578125 1674.308594 2987.828125 1674.21875 C 3034.730469 1670.050781 3062.148438 1669.019531 3070.109375 1671.128906 C 3088.898438 1673.480469 3106.179688 1679.480469 3121.949219 1689.121094 L 3133.28125 1686.519531 "/>
<path fill-rule="nonzero" fill="rgb(0%, 0%, 0%)" fill-opacity="1" d="M 3137.929688 1642.941406 C 3137.128906 1604.03125 3134.699219 1576.160156 3130.640625 1559.328125 C 3125.648438 1537.859375 3117.261719 1519.75 3105.46875 1504.980469 C 3084.980469 1478.550781 3040.101562 1457.050781 2970.828125 1440.460938 C 2968.53125 1442.980469 2976.488281 1452.71875 2994.710938 1469.679688 C 2997.699219 1471.828125 3002.410156 1474.359375 3008.839844 1477.269531 C 3035.199219 1486.851562 3052.320312 1494.121094 3060.179688 1499.070312 C 3074.96875 1508.179688 3086.359375 1517.738281 3094.359375 1527.769531 C 3102.480469 1537.601562 3108.378906 1547.960938 3112.050781 1558.839844 C 3114.109375 1561.78125 3118.730469 1582.121094 3125.910156 1619.871094 C 3129 1629.820312 3132.640625 1637.679688 3136.820312 1643.429688 L 3137.929688 1642.941406 "/>
<path fill-rule="nonzero" fill="rgb(0%, 0%, 0%)" fill-opacity="1" d="M 2342.761719 202.601562 C 2307.78125 241.519531 2278.820312 306.761719 2255.871094 398.300781 C 2235.699219 480.859375 2227.398438 568.761719 2230.96875 661.988281 C 2236.671875 727.429688 2247.96875 785.53125 2264.859375 836.289062 C 2309.859375 982.058594 2357.199219 1109.488281 2406.859375 1218.570312 C 2415.910156 1250.671875 2419.519531 1289.691406 2417.710938 1335.609375 C 2415.761719 1377.570312 2402.988281 1427.191406 2379.410156 1484.488281 C 2380.378906 1492.019531 2338.519531 1572.929688 2253.839844 1727.238281 C 2239.539062 1756.769531 2228.671875 1785.960938 2221.21875 1814.808594 C 2199.359375 1885.609375 2203.929688 1965.789062 2234.921875 2055.359375 C 2220.339844 1975.851562 2221.140625 1909.371094 2237.300781 1855.949219 C 2266.71875 1759.5 2325 1622.890625 2412.148438 1446.121094 C 2430.859375 1397.628906 2441.078125 1354.46875 2442.820312 1316.648438 C 2444.421875 1268.960938 2438.238281 1218.070312 2424.261719 1163.96875 C 2427.011719 1161.261719 2398.328125 1086.21875 2338.238281 938.871094 C 2328.289062 910.988281 2317.691406 873.808594 2306.441406 827.328125 C 2283.199219 730.28125 2272.03125 652.921875 2272.921875 595.25 C 2272.570312 514.140625 2293.769531 424.550781 2336.519531 326.460938 C 2365.441406 263.28125 2407.488281 214.941406 2462.691406 181.429688 C 2408.210938 155.539062 2362.480469 169.070312 2325.488281 222.03125 L 2342.761719 202.601562 "/>
<path fill-rule="nonzero" fill="rgb(0%, 0%, 0%)" fill-opacity="1" d="M 2142.339844 1968.671875 C 2022.761719 2037.429688 1922.929688 2162.390625 1842.859375 2343.539062 C 1744.398438 2580.429688 1694.5 2807.050781 1693.148438 3023.398438 C 1690.929688 3179.140625 1711.640625 3316.988281 1755.28125 3436.949219 C 1762.738281 3484.800781 1857.300781 3670.308594 2038.949219 3993.488281 C 2058.070312 4031.816406 2076.109375 4080.015625 2093.089844 4138.074219 C 2104.921875 4177.972656 2112.960938 4227.582031 2117.199219 4286.898438 C 2120.460938 4343.140625 2114.890625 4414.632812 2100.5 4501.375 C 2100.699219 4511.527344 2104.871094 4517.136719 2113.019531 4518.210938 C 2134.480469 4513.085938 2154.988281 4512.734375 2174.558594 4517.164062 C 2168.238281 4492.988281 2165.398438 4473.78125 2166.050781 4459.550781 C 2175.519531 4346.519531 2178.679688 4277.203125 2175.53125 4251.609375 C 2172.828125 4201.984375 2164.128906 4142.453125 2149.421875 4073.011719 C 2130.871094 4006.542969 2107.371094 3949.46875 2078.910156 3901.789062 C 1918.679688 3684.671875 1832.339844 3549.980469 1819.890625 3497.710938 C 1771.421875 3374.179688 1748.671875 3237.441406 1751.648438 3087.480469 C 1757.671875 2870.160156 1788.648438 2684.988281 1844.589844 2531.960938 C 1937.011719 2278.339844 2033.058594 2090.351562 2132.71875 1967.988281 L 2142.339844 1968.671875 "/>
<path fill-rule="nonzero" fill="rgb(0%, 0%, 0%)" fill-opacity="1" d="M 1983.988281 2039.488281 C 1717.960938 2223.871094 1494.351562 2440.921875 1313.160156 2690.628906 C 1090.679688 2978.550781 971.640625 3213.628906 956.035156 3395.871094 C 930.332031 3559.5 957.933594 3713.109375 1038.839844 3856.691406 C 1069.648438 3905.761719 1109.980469 3952.160156 1159.820312 3995.890625 C 1411.039062 4188.875 1532.71875 4287.542969 1524.859375 4291.890625 C 1554.398438 4322.929688 1575 4348.511719 1586.640625 4368.632812 C 1604.921875 4397.433594 1618.019531 4431.136719 1625.941406 4469.75 C 1628.621094 4475.550781 1632.449219 4476.972656 1637.429688 4474.023438 C 1662.03125 4423.195312 1653.980469 4370.492188 1613.28125 4315.921875 L 1312.398438 4057.992188 C 1271.871094 4017.859375 1236.960938 3968.140625 1207.660156 3908.828125 C 1142.191406 3766.128906 1123.128906 3597.539062 1150.46875 3403.070312 C 1241.488281 2942 1526.671875 2482.941406 2006.03125 2025.878906 L 1983.988281 2039.488281 "/>
<path fill-rule="nonzero" fill="rgb(0%, 0%, 0%)" fill-opacity="1" d="M 3626.609375 2381.289062 L 3633.898438 2377.550781 L 3596.820312 2410.128906 C 3585.570312 2419.640625 3573.058594 2428.660156 3559.308594 2437.191406 C 3539.078125 2448.800781 3517.019531 2457.46875 3493.140625 2463.210938 C 3458.46875 2470.558594 3427.488281 2473.738281 3400.199219 2472.730469 C 3388.011719 2472.570312 3372.390625 2471.140625 3353.371094 2468.429688 C 3338.519531 2466.199219 3323.351562 2463.558594 3307.851562 2460.519531 C 3304.96875 2460.109375 3303.539062 2459.410156 3303.570312 2458.429688 C 3304.660156 2457.589844 3308.21875 2456.738281 3314.238281 2455.890625 C 3340.128906 2452.769531 3378.769531 2446.640625 3430.148438 2437.488281 C 3447.179688 2434.441406 3463.828125 2430.960938 3480.101562 2427.050781 C 3532.398438 2414.058594 3576.75 2399.839844 3613.148438 2384.398438 L 3626.609375 2381.289062 "/>
<path fill-rule="nonzero" fill="rgb(0%, 0%, 0%)" fill-opacity="1" d="M 3522.660156 2512.460938 L 3571.320312 2886.328125 C 3575.128906 2920.28125 3576.828125 2959.929688 3576.398438 3005.28125 C 3569.351562 3175.191406 3547.46875 3316.390625 3510.75 3428.871094 C 3490.449219 3498.890625 3461.148438 3570.339844 3422.859375 3643.210938 C 3427.46875 3646.101562 3346.878906 3774.03125 3181.089844 4026.984375 C 3142 4094.71875 3112.191406 4159.519531 3091.648438 4221.382812 C 3032.269531 4396.984375 3023.878906 4573.734375 3066.480469 4751.632812 C 2988.050781 4718.269531 2945.878906 4623.96875 2939.980469 4468.730469 C 2945.148438 4383.769531 2967.039062 4302.082031 3005.640625 4223.671875 C 3020.328125 4193.191406 3039.628906 4158.722656 3063.550781 4120.265625 C 3216.988281 3893.039062 3304.910156 3755.488281 3327.308594 3707.601562 C 3365.511719 3636.921875 3399.058594 3556.558594 3427.949219 3466.519531 C 3471.011719 3343.050781 3499.378906 3204.300781 3513.039062 3050.289062 C 3529.289062 2901.550781 3530.878906 2777.441406 3517.808594 2677.96875 L 3522.660156 2512.460938 "/>
<path fill-rule="nonzero" fill="rgb(0%, 0%, 0%)" fill-opacity="1" d="M 2342.03125 3951.359375 C 2513.199219 4021.832031 2671.851562 4021.320312 2817.960938 3949.828125 C 2997.519531 3859.449219 3132.410156 3722.25 3222.640625 3538.21875 C 3086.210938 3727.988281 2936.210938 3850.140625 2772.628906 3904.660156 C 2717.910156 3918.699219 2661.050781 3927.800781 2602.050781 3931.960938 C 2540.800781 3931.480469 2476.539062 3927.191406 2409.269531 3919.089844 C 2366.519531 3912.550781 2332.898438 3902.691406 2308.398438 3889.5 C 2298.148438 3886.351562 2273.558594 3864.308594 2234.648438 3823.359375 C 2277.851562 3901.359375 2313.589844 3944.75 2341.859375 3953.550781 L 2342.03125 3951.359375 "/>
<path fill-rule="nonzero" fill="rgb(0%, 0%, 0%)" fill-opacity="1" d="M 2543.839844 4062.722656 C 2545.058594 4076.4375 2545.921875 4090.855469 2546.410156 4105.976562 C 2546.851562 4155.605469 2548.070312 4206.207031 2550.070312 4257.777344 C 2551.328125 4284.765625 2553.570312 4311.570312 2556.808594 4338.191406 C 2565.351562 4410.398438 2572.210938 4459.472656 2577.398438 4485.410156 C 2581.589844 4510.160156 2590.789062 4541.464844 2605.019531 4579.320312 C 2605.941406 4583.050781 2605.960938 4586.273438 2605.089844 4588.988281 C 2589.488281 4594.777344 2569.109375 4583.003906 2543.960938 4553.667969 C 2538.039062 4545.792969 2532.519531 4537.535156 2527.398438 4528.898438 C 2496.039062 4471.3125 2472.539062 4430.664062 2456.898438 4406.945312 C 2445.878906 4387.546875 2440.859375 4377.351562 2441.851562 4376.367188 C 2441.589844 4371.449219 2443.589844 4370.25 2447.839844 4372.777344 C 2475.589844 4401.765625 2494.71875 4418.574219 2505.210938 4423.195312 C 2519.210938 4428.304688 2527.421875 4425.152344 2529.859375 4413.738281 C 2533.261719 4410.167969 2534.988281 4385.992188 2535.03125 4341.210938 C 2535.148438 4314.667969 2532.160156 4238.449219 2526.039062 4112.558594 L 2543.839844 4062.722656 "/>
<path fill-rule="nonzero" fill="rgb(0%, 0%, 0%)" fill-opacity="1" d="M 2927.019531 3918.121094 C 2928.019531 3913.320312 2926.691406 3912.269531 2923.039062 3914.96875 C 2914.078125 3925.109375 2870.839844 3952.21875 2793.328125 3996.308594 C 2772.460938 4014.402344 2756.851562 4037.296875 2746.488281 4064.984375 C 2725.980469 4122.238281 2713.601562 4174.828125 2709.359375 4222.75 C 2696.820312 4361.492188 2694.28125 4452.996094 2701.738281 4497.265625 C 2702.371094 4451.421875 2710.789062 4381.273438 2726.96875 4286.8125 C 2738.851562 4218.503906 2751.089844 4170.792969 2763.699219 4143.679688 C 2795.628906 4060.328125 2852.738281 3987.320312 2935.019531 3924.648438 L 2927.019531 3918.121094 "/>
<path fill-rule="nonzero" fill="rgb(0%, 0%, 0%)" fill-opacity="1" d="M 3186.601562 4599.480469 C 3180.679688 4621.117188 3201.191406 4643.222656 3248.128906 4665.804688 C 3261.160156 4676.164062 3348.691406 4702.707031 3510.71875 4745.425781 C 3537.140625 4755.046875 3550.910156 4763.09375 3552.019531 4769.570312 C 3552.109375 4773.871094 3541.171875 4777.105469 3519.191406 4779.269531 C 3385.808594 4786.140625 3305.691406 4794.539062 3278.828125 4804.472656 C 3259.949219 4803.875 3241.949219 4821.722656 3224.828125 4858.019531 C 3217.078125 4863.515625 3207.078125 4866.886719 3194.828125 4868.128906 C 3161.53125 4875.882812 3066.488281 4881.457031 2909.699219 4884.847656 C 2617.761719 4886.847656 2372.839844 4885.3125 2174.921875 4880.242188 C 2147.070312 4878.636719 1994.539062 4883.703125 1717.359375 4895.445312 C 1640.640625 4896.328125 1577.328125 4894.71875 1527.421875 4890.617188 C 1434.660156 4883.652344 1367.300781 4864.34375 1325.320312 4832.6875 C 1309.101562 4819.433594 1301.609375 4804.078125 1302.851562 4786.632812 C 1348.160156 4702.90625 1359.671875 4656.25 1337.378906 4646.667969 C 1311.351562 4620.894531 1281.871094 4602.175781 1248.910156 4590.503906 C 1227.46875 4579.589844 1150.671875 4554.296875 1018.5 4514.625 C 1001.738281 4509.113281 984.695312 4501.460938 967.359375 4491.664062 C 927.625 4459.722656 930.503906 4434.5625 976.003906 4416.191406 C 1018.300781 4398.347656 1081.300781 4387.152344 1165.011719 4382.617188 C 1281.761719 4376.6875 1376.558594 4380.195312 1449.410156 4393.144531 C 1470.328125 4398.027344 1481.960938 4402.808594 1484.289062 4407.488281 C 1491.671875 4465.707031 1511.488281 4496.347656 1543.769531 4499.40625 C 1573.78125 4510.742188 1616.351562 4520.808594 1671.46875 4529.609375 C 1848.210938 4540.941406 1961.128906 4555.066406 2010.25 4571.988281 C 2037.320312 4579.597656 2055.761719 4587.40625 2065.570312 4595.421875 C 2093.960938 4635.601562 2113.578125 4657.207031 2124.429688 4660.230469 C 2141.5 4669.167969 2164.300781 4675.039062 2192.828125 4677.851562 C 2313.699219 4687.699219 2409.71875 4684.191406 2480.898438 4667.324219 C 2499.980469 4656.269531 2506.679688 4645.1875 2500.96875 4634.074219 C 2454.070312 4597.734375 2433.449219 4574.484375 2439.089844 4564.316406 C 2438.929688 4549.433594 2453.421875 4541.125 2482.558594 4539.390625 C 2502.601562 4536.847656 2557.421875 4554.695312 2647.019531 4592.929688 L 2801.960938 4673.679688 C 2838.761719 4685.453125 2879.539062 4691.144531 2924.289062 4690.75 C 2982.648438 4689.710938 3019.691406 4680.738281 3035.410156 4663.839844 C 3048.550781 4652.960938 3047.53125 4621.347656 3032.371094 4568.996094 C 3034.171875 4557.578125 3038.351562 4550.019531 3044.910156 4546.328125 C 3068.199219 4530.71875 3103.75 4524.984375 3151.570312 4529.121094 C 3219.539062 4549.367188 3205.609375 4584.199219 3109.78125 4633.625 L 3186.601562 4599.480469 "/>
<path fill-rule="nonzero" fill="rgb(0%, 0%, 0%)" fill-opacity="1" d="M 3002.308594 4484.734375 C 3019.46875 4497.140625 3038.589844 4504.738281 3059.671875 4507.523438 C 3067.320312 4508.632812 3075.621094 4509.3125 3084.570312 4509.570312 C 3145.769531 4508.949219 3189.75 4509.867188 3216.519531 4512.324219 C 3264.089844 4516.011719 3305.480469 4521.5625 3340.691406 4528.984375 C 3407.390625 4545.152344 3440.679688 4561.96875 3440.578125 4579.4375 C 3443.050781 4593.894531 3433.980469 4604.589844 3413.371094 4611.519531 C 3403.640625 4616.214844 3389.921875 4621.636719 3372.199219 4627.785156 C 3313.058594 4645.675781 3272.050781 4659.257812 3249.171875 4668.53125 C 3219.351562 4679.980469 3190.949219 4693.085938 3163.96875 4707.851562 C 3117.921875 4734.585938 3085.300781 4761.214844 3066.109375 4787.738281 L 3002.308594 4484.734375 "/>
<path fill-rule="nonzero" fill="rgb(0%, 0%, 0%)" fill-opacity="1" d="M 2157.359375 2033.46875 C 2154.679688 2047.550781 2171.839844 2090.078125 2208.820312 2161.050781 C 2211.648438 2167.890625 2212.378906 2176.25 2211.019531 2186.128906 C 2208.949219 2197.421875 2204.140625 2210.390625 2196.609375 2225.03125 C 2139.710938 2327.25 2098.96875 2409.410156 2074.378906 2471.488281 C 2042.648438 2547.921875 2014.480469 2632.210938 1989.871094 2724.371094 C 1964.929688 2816.980469 1948.921875 2891.53125 1941.851562 2948.039062 C 1937.988281 2978.460938 1934.851562 3013.289062 1932.410156 3052.519531 C 1929.230469 3099.078125 1926.820312 3162.890625 1925.160156 3243.960938 C 1924.828125 3250.550781 1923.828125 3253.761719 1922.179688 3253.589844 C 1903.179688 3176.160156 1890.179688 3059.921875 1883.191406 2904.898438 C 1882.730469 2831.460938 1890.921875 2740.421875 1907.738281 2631.78125 C 1943.078125 2393.691406 2013.550781 2195.871094 2119.140625 2038.328125 L 2157.359375 2033.46875 "/>
<path fill-rule="nonzero" fill="rgb(0%, 0%, 0%)" fill-opacity="1" d="M 1685.261719 2586.808594 L 1656.660156 2628.480469 C 1582.519531 2737.398438 1525.410156 2828.550781 1485.328125 2901.941406 L 1583.699219 2588.628906 L 1514.378906 2691.871094 C 1470.851562 2760.050781 1432.679688 2826.941406 1399.871094 2892.550781 L 1354.679688 2989.988281 C 1327.230469 3054.308594 1305.148438 3117.328125 1288.429688 3179.070312 L 1267.359375 3270.71875 L 1254.339844 3360.429688 L 1249.359375 3448.210938 C 1250.480469 3577.238281 1267.019531 3674.410156 1298.96875 3739.730469 C 1325.640625 3791.699219 1357.089844 3838.828125 1393.328125 3881.101562 C 1501.96875 3993.5 1567.730469 4064.558594 1590.609375 4094.28125 C 1530.480469 3904.371094 1495.738281 3781.691406 1486.398438 3726.261719 C 1476.410156 3669.230469 1470.28125 3623 1468.019531 3587.558594 C 1464.308594 3514.589844 1464.148438 3461.429688 1467.550781 3428.089844 C 1482.839844 3257.339844 1506.011719 3115.871094 1537.078125 3003.679688 C 1557.359375 2925.050781 1606.75 2786.089844 1685.261719 2586.808594 "/>
<path fill-rule="nonzero" fill="rgb(0%, 0%, 0%)" fill-opacity="1" d="M 3328.160156 2529.050781 C 3358.210938 2536.171875 3395.199219 2536.261719 3439.128906 2529.308594 C 3445.339844 2529.890625 3450.480469 2532.988281 3454.539062 2538.628906 C 3469.511719 2553.921875 3477.390625 2619.628906 3478.179688 2735.761719 C 3478.351562 2859.070312 3464.648438 2993.539062 3437.078125 3139.171875 C 3426.621094 3192.289062 3414.148438 3240.730469 3399.679688 3284.480469 C 3359.460938 3403.761719 3337.839844 3461.300781 3334.808594 3457.109375 L 3369.800781 3311.339844 C 3374.410156 3290.078125 3379.078125 3263.328125 3383.839844 3231.078125 C 3400.199219 3125.058594 3407.429688 3041.308594 3405.519531 2979.808594 C 3405.070312 2790.609375 3381.628906 2645.949219 3335.179688 2545.800781 L 3328.160156 2529.050781 "/>
<path fill-rule="nonzero" fill="rgb(0%, 0%, 0%)" fill-opacity="1" d="M 2420.351562 3824.339844 C 2555.039062 3846.660156 2705.109375 3812.148438 2870.558594 3720.789062 C 3027.929688 3633.109375 3152.039062 3505.871094 3242.898438 3339.078125 C 3121.75 3581.28125 3002.648438 3731.730469 2885.589844 3790.421875 C 2787.179688 3839.929688 2693.699219 3870.949219 2605.160156 3883.46875 C 2508.410156 3878.660156 2440.011719 3855.550781 2399.929688 3814.160156 L 2420.351562 3824.339844 "/>
<path fill-rule="nonzero" fill="rgb(0%, 0%, 0%)" fill-opacity="1" d="M 2314.25 3985.519531 C 2337.890625 4002.75 2354.898438 4013.914062 2365.28125 4019.007812 C 2366.519531 4020.453125 2391.480469 4031.671875 2440.148438 4052.660156 C 2455 4061.757812 2465.160156 4070.71875 2470.628906 4079.546875 C 2483.96875 4103.492188 2492.53125 4135.242188 2496.308594 4174.792969 C 2498.199219 4200.9375 2498.378906 4224.128906 2496.871094 4244.363281 C 2494.980469 4254.175781 2491.03125 4256.59375 2485.03125 4251.617188 L 2380.679688 4065.28125 C 2365.539062 4040.058594 2347.828125 4018.148438 2327.539062 3999.550781 L 2314.25 3985.519531 "/>
<path fill-rule="nonzero" fill="rgb(0%, 0%, 0%)" fill-opacity="1" d="M 2523.300781 1204.800781 C 2523.011719 1198.089844 2525.78125 1186.46875 2531.640625 1169.921875 L 2610.789062 939.648438 C 2621.96875 901.988281 2629.300781 870.238281 2632.761719 844.378906 C 2643.609375 788.96875 2637.078125 700.671875 2613.160156 579.46875 C 2598.859375 496.199219 2560.421875 404.921875 2497.839844 305.640625 C 2493.359375 305.949219 2489.28125 310.210938 2485.601562 318.410156 C 2469.609375 354.019531 2454.640625 391.839844 2440.710938 431.859375 C 2417.488281 498.609375 2401.941406 556.109375 2394.058594 604.351562 C 2380.109375 684.761719 2382.371094 772.941406 2400.820312 868.871094 C 2406.699219 895.660156 2414.621094 921.769531 2424.578125 947.199219 C 2422.648438 947.320312 2446.710938 999.730469 2496.78125 1104.421875 C 2502.628906 1117.25 2508.671875 1137.140625 2514.878906 1164.109375 L 2523.300781 1204.800781 "/>
<path fill-rule="nonzero" fill="rgb(0%, 0%, 0%)" fill-opacity="1" d="M 3343.359375 2072.820312 C 3335.910156 2054.089844 3243.078125 2041.511719 3064.859375 2035.070312 C 2998.359375 2033.539062 2937.011719 2033.910156 2880.808594 2036.199219 C 2857.210938 2037.089844 2827.328125 2038.671875 2791.148438 2040.960938 C 2778.53125 2041.601562 2725.171875 2045.519531 2631.070312 2052.730469 C 2622.429688 2053.390625 2618.660156 2053.449219 2619.769531 2052.910156 C 2736.839844 2041.929688 2841.351562 2038.929688 2933.300781 2043.910156 C 3041.328125 2049.160156 3160.648438 2062.800781 3291.238281 2084.828125 L 3343.359375 2072.820312 "/>
<path fill-rule="nonzero" fill="rgb(0%, 0%, 0%)" fill-opacity="1" d="M 3353.140625 2145.78125 C 3339.539062 2139.25 3323.269531 2135.789062 3304.328125 2135.410156 C 3261.011719 2133.058594 3221.019531 2132.988281 3184.359375 2135.191406 C 3152.359375 2136.441406 3095.050781 2140.828125 3012.441406 2148.351562 C 3010.660156 2148.109375 2938.601562 2155.839844 2796.238281 2171.539062 C 2864.089844 2165.28125 2924.058594 2162.921875 2976.128906 2164.449219 C 2993.628906 2164.371094 3076.808594 2167.339844 3225.691406 2173.351562 C 3247.699219 2174.03125 3279.46875 2176.550781 3320.980469 2180.910156 L 3353.140625 2145.78125 "/>
<path fill-rule="nonzero" fill="rgb(0%, 0%, 0%)" fill-opacity="1" d="M 3316.671875 2216.058594 C 3276.210938 2207.949219 3094.570312 2227.390625 2771.75 2274.371094 C 2771.089844 2274.628906 2772.550781 2274.648438 2776.140625 2274.429688 C 2798.769531 2272.828125 2822.289062 2271.421875 2846.699219 2270.191406 C 2912.800781 2267.800781 2997.898438 2263.859375 3101.988281 2258.390625 C 3133.21875 2256.890625 3190.738281 2254.738281 3274.558594 2251.941406 L 3316.671875 2216.058594 "/>
<path fill-rule="nonzero" fill="rgb(0%, 0%, 0%)" fill-opacity="1" d="M 3784.550781 2227.898438 C 3838.78125 2250.269531 3930.730469 2309.199219 4060.398438 2404.699219 C 4061.121094 2406.601562 4047.921875 2400.71875 4020.789062 2387.078125 L 3872.140625 2306.769531 C 3844.878906 2293.050781 3812.628906 2277.929688 3775.398438 2261.398438 L 3784.550781 2227.898438 "/>
<path fill-rule="nonzero" fill="rgb(0%, 0%, 0%)" fill-opacity="1" d="M 3724.679688 2289.449219 C 3792.890625 2320.921875 3886.371094 2378.21875 4005.140625 2461.328125 C 4004.761719 2462.601562 4000.578125 2461.171875 3992.609375 2457.050781 C 3939.28125 2427.140625 3896.988281 2405.019531 3865.75 2390.679688 C 3844.449219 2380.339844 3800.75 2361.859375 3734.660156 2335.238281 L 3724.679688 2289.449219 "/>
<path fill-rule="nonzero" fill="rgb(0%, 0%, 0%)" fill-opacity="1" d="M 3711.699219 2380.601562 C 3742.550781 2388.328125 3809.300781 2432.601562 3911.941406 2513.390625 L 3895.96875 2504.328125 C 3857.570312 2478.601562 3834.460938 2463.628906 3826.640625 2459.429688 C 3809.078125 2448.960938 3792.71875 2440.359375 3777.558594 2433.621094 C 3751.769531 2421.46875 3719.28125 2413.601562 3680.101562 2410 L 3711.699219 2380.601562 "/>
<path fill-rule="nonzero" fill="rgb(0%, 0%, 0%)" fill-opacity="1" d="M 2751.890625 2391.949219 C 2762.980469 2400.621094 2784.730469 2405.550781 2817.140625 2406.75 C 2823.640625 2409.269531 2871.929688 2408.109375 2961.988281 2403.269531 C 2978.148438 2403.519531 2994.078125 2405.488281 3009.769531 2409.191406 C 3103.300781 2434.640625 3166.929688 2462.429688 3200.660156 2492.550781 C 3285.429688 2555.621094 3315.441406 2670.910156 3290.699219 2838.421875 C 3278.140625 2704.28125 3235.210938 2608.738281 3161.910156 2551.820312 C 3142.640625 2537.25 3113.578125 2524.949219 3074.738281 2514.910156 L 2842.960938 2473.570312 C 2801.871094 2463.800781 2763.820312 2452.050781 2728.808594 2438.300781 C 2624.058594 2395.050781 2553.941406 2346.488281 2518.441406 2292.628906 L 2751.890625 2391.949219 "/>
<path fill-rule="nonzero" fill="rgb(0%, 0%, 0%)" fill-opacity="1" d="M 2997.058594 1204.800781 L 2993.859375 1204.839844 C 2944.890625 1206.710938 2898.46875 1213.28125 2854.609375 1224.539062 C 2824.308594 1232.359375 2793.75 1242.699219 2762.921875 1255.550781 L 2731.988281 1274.898438 C 2653.488281 1327.601562 2606.878906 1389.109375 2592.148438 1459.441406 C 2619.410156 1428.839844 2658.25 1392.691406 2708.660156 1350.988281 C 2732.449219 1331.628906 2761.558594 1313.941406 2796.011719 1297.910156 C 2841.078125 1273.070312 2902.28125 1267.53125 2979.621094 1281.28125 C 3102.421875 1309.21875 3198.160156 1347.371094 3266.820312 1395.738281 C 3329.210938 1440.371094 3365.949219 1469.210938 3377.019531 1482.289062 C 3395.378906 1499.128906 3426.261719 1541.199219 3469.660156 1608.511719 C 3485.761719 1628.210938 3498.28125 1640.761719 3507.230469 1646.171875 C 3488.800781 1593.011719 3469.429688 1547.71875 3449.128906 1510.320312 C 3434.429688 1477.828125 3407.589844 1443.378906 3368.609375 1406.96875 C 3305.929688 1356.988281 3242.289062 1314.261719 3177.679688 1278.78125 C 3123.660156 1250.621094 3091.121094 1234.691406 3080.058594 1230.988281 C 3067.738281 1221.988281 3059.96875 1217.121094 3056.730469 1216.371094 C 3039.738281 1208.578125 3019.851562 1204.71875 2997.058594 1204.800781 "/>
<path fill-rule="nonzero" fill="rgb(0%, 0%, 0%)" fill-opacity="1" d="M 2430.679688 1512.390625 C 2411.699219 1528.589844 2376.398438 1612.769531 2324.78125 1764.929688 C 2303.25 1832.070312 2295.300781 1882.800781 2300.941406 1917.121094 C 2316.589844 2005.058594 2387.039062 2072.75 2512.289062 2120.191406 C 2483.5 2088.808594 2459.53125 2053.378906 2440.359375 2013.898438 C 2409.5 1949.828125 2391.160156 1896.058594 2385.328125 1852.578125 C 2369.101562 1769.601562 2380.949219 1667.398438 2420.890625 1545.980469 L 2430.679688 1512.390625 "/>
</svg>
